<svg id="Layer_1" data-name="Layer 1" xmlns="http://www.w3.org/2000/svg" viewBox="0 0 1074.58 251.52"><defs><style>.cls-1,.cls-3{fill:#fbb320;}.cls-2{font-size:191.03px;fill:#231eb6;font-family:Sifonn-Basic, Sifonn;}.cls-3{font-size:39px;font-family:Poppins-Medium, Poppins;font-weight:500;}</style></defs><path class="cls-1" d="M127.12,450.19c-4.81-2.86-9.82-5.39-13.63-9.71-3.23-3.65-5.12-8.09-7.67-12.14-2.36-7.61-2.1-15.45-2.08-23.28q.09-44.93.12-89.85c0-4,1.34-7.73,2.55-11.47,3-7.38,12-10,17.39-3.67,2.21,2.6,3.36,5.6,2,8.92-2,5-2.11,10.09-2.1,15.33.07,30.05,0,60.1.05,90.15,0,7,3.22,12.39,9.28,16a12.74,12.74,0,0,0,7.9,2.59c5.15,0,10.31,0,15.46,0h136l19.33,0a18.54,18.54,0,0,0,18.64-18c.38-7.58,5.56-11.5,13.35-10.1,6.59,3.86,8,8.1,5.73,17.75-2.76,11.92-9.81,20.54-20.39,26.44a48,48,0,0,1-14,4q-37.77,0-75.53-.09c-1.93,0-2.48.68-2.44,2.52q.15,6.81,0,13.64c0,1.82.47,2.54,2.42,2.52,9.42-.12,18.85-.11,28.27-.15,4.58-.16,8.63.89,11.14,5.14,3.08,5.23,1.11,10.66-5.14,14.37-6.85,1.23-13.78.18-20.66.68H219.71c-11.44,0-22.88-.09-34.31-.09a12.19,12.19,0,0,1-7-1.78,9.67,9.67,0,0,1-4.13-10.7,9.79,9.79,0,0,1,9.44-7.48c8.66-.1,17.33-.09,26-.13a38.28,38.28,0,0,1,4.29.14c2.56.35,3.2-.74,3.09-3.16-.21-4.95-.13-9.92-.18-14.88,0-.36-.14-.54-.51-.48l-10,0H157.07c-4.28-.05-8.58-.3-12.86-.1C138.27,453.39,132.67,452,127.12,450.19Z" transform="translate(-103.72 -245.09)"/><path class="cls-1" d="M343.67,375.88c-7.83,1.77-13.31-2.62-13.33-10.75q0-22.49,0-45a22.25,22.25,0,0,0-1.43-8.8c-2-4.7-1.54-8.92,2.42-12.38s8.09-3,12.33-.62c4.86,4.9,6.31,11.28,6.45,17.69.37,16.76.24,33.54.15,50.31C350.25,370.85,347.86,374.08,343.67,375.88Z" transform="translate(-103.72 -245.09)"/><path class="cls-1" d="M285.69,262.39l20.66,7.8c6.86,3.65,11.14,8.91,10.67,17.12-.25,4.43-2.62,7.84-5.36,11.06a35.36,35.36,0,0,1-10.18,5.19c-3.09,1-6.1,2.32-9.14,3.49-2.83.92-5.66,1.87-8.5,2.76-1.48.47-1.27,1.34-1,2.59,3.81,15.35,5,31,4.85,46.76-.06,5.84-3.53,9.79-9.33,10.56a51.16,51.16,0,0,0-9.38,2,77.77,77.77,0,0,0-20.65,6.65,57.72,57.72,0,0,0-13.05,6.34c-4.47,2.78-8.76,3.22-13.4.85a4.47,4.47,0,0,0-.73-.65,123.5,123.5,0,0,0-43.62-15.23c-5.64-.84-9.2-4.68-9.26-10.29-.16-15.88.82-31.65,4.87-47.09.4-1.52.21-2.18-1.32-2.68-3.57-1.17-7.11-2.46-10.62-3.81-2-.78-2.77-.29-2.73,1.95.11,5.54-.11,11.1.09,16.64.13,3.86-.6,7.24-3.48,10-3.41,2.06-6.84,2.68-10.74,1.11-3.45-1.38-5.21-3.89-5.25-7.27-.15-15-.33-29.95.07-44.92.15-5.69,4.29-9.56,9.13-12.23,2.88-1.58,6-2.75,9-4.11,12-3.74,23.73-8.39,35.63-12.49,9.29-3.19,18.24-7.45,28.09-8.88s19.46.37,28.75,3.91c3,1.14,6,2.05,9.06,3.06l.08-.1.74.51C268.28,256.32,276.89,259.62,285.69,262.39Zm-29.3,10.82-.69-.13c-8.08-3.09-15.93-6.93-24.71-7.82l-1.92-.06H227.7a16.74,16.74,0,0,0-7.54.83q-10.22,3.44-20.35,7.11c-1.16.41-2.6.46-3.47,1.76h30l2.7,0,1.26.05c5.7,1.86,8,4.53,8.18,9.36.16,5.29-1.89,8.09-7.51,10.23a.69.69,0,0,0-.59.09l-4,.36c-11.58-1.27-23.15.55-34.81.14a7.89,7.89,0,0,0,2.55,1.39c7.4,2.65,14.77,5.37,22.21,7.88,3.44,1.16,6.94,2.37,10.7,1.9.55,0,1.1.12,1.65.12,9.76-.06,18.2-4.7,27.09-7.81L291.69,286c-2.74-1-4.46-1.68-6.21-2.3q-14.12-5-28.24-10Zm-34,89.81c2.67,1.21,4.8,3.6,8.45,1.61A129.22,129.22,0,0,1,265,352.1c2.09-.47,2.88-1.26,2.76-3.51a176.71,176.71,0,0,0-2.62-24.71c-1.33-6.87-1.27-7.06-7.63-4.59-11.31,4.39-22.69,8.25-35.1,7.06-1.45-1.08-3.21-.57-4.82-.94-7.68-1.78-14.9-4.87-22.31-7.44-1.42-.5-2.92-1.38-3.46,1.14a152,152,0,0,0-3.47,30.58c0,1.15.28,1.79,1.56,2.07A160.45,160.45,0,0,1,222.38,363Z" transform="translate(-103.72 -245.09)"/><text class="cls-2" transform="translate(267.73 177.73)">IUnite<tspan class="cls-1" x="543.09" y="0">.AI</tspan></text><text class="cls-3" transform="translate(740.24 228.82)">by Infinite Group </text></svg>